<svg width="25" height="32" viewBox="0 0 25 32" fill="none" xmlns="http://www.w3.org/2000/svg">
<path d="M24.5333 14.1341V30.1634C24.5319 30.6499 24.334 31.1161 23.9829 31.4603C23.6318 31.8044 23.156 31.9984 22.6594 32H1.87395C1.37732 31.9984 0.9015 31.8044 0.550396 31.4603C0.199293 31.1161 0.00142528 30.6499 0 30.1634V14.1341C0.00145683 13.6477 0.199357 13.1815 0.550475 12.8375C0.901592 12.4935 1.37739 12.2996 1.87395 12.2982H3.90088V8.19606C3.90088 6.02233 4.78228 3.93763 6.35117 2.40057C7.92006 0.863511 10.0479 0 12.2667 0C14.4854 0 16.6133 0.863511 18.1822 2.40057C19.7511 3.93763 20.6325 6.02233 20.6325 8.19606V12.2982H22.6594C23.156 12.2996 23.6318 12.4935 23.9829 12.8375C24.334 13.1815 24.5319 13.6477 24.5333 14.1341ZM18.0089 8.19606C18.0089 7.45728 17.8604 6.72573 17.5718 6.04318C17.2832 5.36063 16.8603 4.74045 16.3271 4.21805C15.7938 3.69565 15.1608 3.28126 14.4641 2.99854C13.7675 2.71582 13.0208 2.57031 12.2667 2.57031C11.5126 2.57031 10.7659 2.71582 10.0692 2.99854C9.37252 3.28126 8.7395 3.69565 8.20628 4.21805C7.67306 4.74045 7.25009 5.36063 6.96151 6.04318C6.67294 6.72573 6.52441 7.45728 6.52441 8.19606V12.2982H18.0089V8.19606ZM14.8898 20.0313C14.8897 19.5714 14.7636 19.1199 14.5247 18.724C14.2858 18.328 13.9428 18.0021 13.5316 17.7803C13.1203 17.5585 12.6558 17.4488 12.1866 17.4628C11.7173 17.4768 11.2605 17.6139 10.8637 17.8598C10.467 18.1057 10.1448 18.4514 9.93092 18.8608C9.71701 19.2703 9.61917 19.7284 9.64759 20.1875C9.67601 20.6466 9.82965 21.0899 10.0925 21.471C10.3553 21.8521 10.7178 22.1571 11.1419 22.3542V26.6414C11.1419 26.9335 11.2604 27.2137 11.4712 27.4203C11.6821 27.6269 11.9681 27.743 12.2663 27.743C12.5645 27.743 12.8505 27.6269 13.0613 27.4203C13.2722 27.2137 13.3907 26.9335 13.3907 26.6414V22.3542C13.8394 22.1458 14.2184 21.8168 14.4838 21.4056C14.7492 20.9944 14.89 20.5178 14.8898 20.0313Z" fill="#344050"/>
</svg>
