<svg width="14" height="13" viewBox="0 0 14 13" fill="none" xmlns="http://www.w3.org/2000/svg">
<path d="M7.04474 11.5789C7.77525 12.7797 8.94238 12.7545 9.25306 12.7545H13.0064L8.57853 7.38062C6.53535 7.46458 5.45498 8.77446 5.67609 9.32304L7.04474 11.5789Z" fill="url(#paint0_linear)"/>
<path d="M5.67627 9.32588C5.67067 9.31749 5.55591 9.046 5.55591 8.71853C5.55591 7.49262 6.64468 6.7873 7.87898 6.5354L8.57871 7.38346C6.53552 7.46463 5.45515 8.77451 5.67627 9.32588Z" fill="url(#paint1_linear)"/>
<path d="M7.38325 5.33472C5.5164 5.33472 4.12256 5.64259 4.12256 6.3731C4.12256 6.64179 4.20652 6.8741 4.43603 7.28554L5.67594 9.32312C5.67035 9.31473 5.55558 9.04323 5.55558 8.71577C5.55558 7.48986 6.64435 6.78454 7.87866 6.53264C8.23692 6.45987 8.60637 6.42348 8.96463 6.42348C9.26691 6.42348 9.55239 6.44027 9.77071 6.51864C9.64196 6.04843 9.30049 5.33472 7.38325 5.33472Z" fill="url(#paint2_linear)"/>
<path d="M2.47421 4.06398C2.98641 4.90644 3.17673 5.11635 4.39985 5.11635C5.29549 5.11635 6.73411 5.11635 6.73411 5.11635L3.5154 1.05238C2.80448 0.173531 2.39585 0.0139944 1.74371 0H0L2.47421 4.06398Z" fill="url(#paint3_linear)"/>
<path d="M13.9999 12.4718C13.9999 12.6313 13.874 12.7573 13.7144 12.7573C13.5549 12.7573 13.429 12.6313 13.429 12.4718C13.429 12.3151 13.5549 12.1863 13.7144 12.1863C13.874 12.1835 13.9999 12.3123 13.9999 12.4718ZM13.4849 12.4718C13.4849 12.5978 13.5885 12.7013 13.7144 12.7013C13.8404 12.7013 13.9439 12.5978 13.9439 12.4718C13.9439 12.3459 13.8404 12.2423 13.7144 12.2423C13.5857 12.2395 13.4849 12.3431 13.4849 12.4718ZM13.7061 12.4886H13.6809V12.6062H13.6305V12.3207C13.6305 12.3207 13.6725 12.3207 13.7144 12.3207C13.7788 12.3207 13.8152 12.3543 13.8152 12.4046C13.8152 12.4634 13.7676 12.4774 13.7592 12.4802L13.8292 12.6062H13.7704L13.7061 12.4886ZM13.7004 12.455C13.7424 12.455 13.7648 12.4354 13.7648 12.4074C13.7648 12.3794 13.7424 12.3599 13.7004 12.3599C13.6865 12.3599 13.6809 12.3627 13.6809 12.3627V12.455C13.6809 12.4522 13.6921 12.455 13.7004 12.455Z" fill="#36495A"/>
<defs>
<linearGradient id="paint0_linear" x1="9.32597" y1="7.23989" x2="9.32597" y2="15.5217" gradientUnits="userSpaceOnUse">
<stop stop-color="#ED1C24"/>
<stop offset="0.1263" stop-color="#E81B23"/>
<stop offset="0.2703" stop-color="#DB1A21"/>
<stop offset="0.4229" stop-color="#C4171D"/>
<stop offset="0.5816" stop-color="#A41317"/>
<stop offset="0.7436" stop-color="#7B0E10"/>
<stop offset="0.7546" stop-color="#780E0F"/>
</linearGradient>
<linearGradient id="paint1_linear" x1="5.55512" y1="7.92913" x2="8.57761" y2="7.92913" gradientUnits="userSpaceOnUse">
<stop stop-color="#69231D"/>
<stop offset="0.2647" stop-color="#8D2922"/>
<stop offset="0.5812" stop-color="#B22F26"/>
<stop offset="0.8377" stop-color="#C93329"/>
<stop offset="1" stop-color="#D1342A"/>
</linearGradient>
<linearGradient id="paint2_linear" x1="5.22274" y1="7.48742" x2="8.59072" y2="5.46374" gradientUnits="userSpaceOnUse">
<stop offset="0.1" stop-color="#E7EBEE"/>
<stop offset="0.3511" stop-color="#D5DCE0"/>
<stop offset="0.8549" stop-color="#A5B4BB"/>
<stop offset="1" stop-color="#96A7B0"/>
</linearGradient>
<linearGradient id="paint3_linear" x1="3.36638" y1="5.78322" x2="3.36638" y2="0.0616031" gradientUnits="userSpaceOnUse">
<stop stop-color="#1C2F72"/>
<stop offset="0.1275" stop-color="#174687"/>
<stop offset="0.4038" stop-color="#0D72AF"/>
<stop offset="0.6512" stop-color="#0692CC"/>
<stop offset="0.8584" stop-color="#02A6DE"/>
<stop offset="1" stop-color="#00ADE4"/>
</linearGradient>
</defs>
</svg>
