<svg width="16" height="18" viewBox="0 0 16 18" fill="none" xmlns="http://www.w3.org/2000/svg">
<path d="M13.5226 1.75484H12.4903V0H11.1484V1.75484H3.92258V0H2.58064V1.75484H1.54839C0.722581 1.75484 0 2.47742 0 3.30322V15.3806C0 15.7935 0.103226 16.2064 0.412903 16.4129C0.72258 16.7226 1.13548 16.8258 1.44516 16.8258H8.05161L6.70968 15.4839H1.34194V6.4H13.8323V9.90968L15.1742 8.56774V3.2C15.071 2.37419 14.4516 1.75484 13.5226 1.75484ZM13.729 5.16129H1.34194V2.99355H13.8323V5.16129H13.729ZM15.071 11.6645L11.4581 15.2774L9.6 13.4194L8.67097 14.3484L11.4581 17.1355L16 12.5935L15.071 11.6645ZM7.22581 8.77419L6.29677 7.84516L4.95484 9.18709L3.6129 7.84516L2.68387 8.77419L4.02581 10.1161L2.68387 11.4581L3.6129 12.3871L4.95484 11.0452L6.29677 12.3871L7.22581 11.4581L5.88387 10.1161L7.22581 8.77419Z" fill="#000"/>
</svg>
