<svg width="24" height="18" viewBox="0 0 24 18" fill="none" xmlns="http://www.w3.org/2000/svg">
<path fill-rule="evenodd" clip-rule="evenodd" d="M22.4521 5.35369H20.8421L20.855 5.32313L20.6819 4.99866C20.1482 3.9994 18.2914 0.690079 16.8183 0.0740635L16.644 0H6.69063L6.51618 0.0740635C5.04057 0.690079 3.1864 3.9994 2.65146 4.99866L2.47827 5.32313L2.49253 5.35369H0.882536C0.396695 5.35369 0 5.66522 0 6.05082V6.79028C0 7.1747 0.396695 7.48741 0.882536 7.48741H1.39422C1.34124 7.72253 1.30633 7.9647 1.30633 8.21863V11.5385C1.30633 12.5354 1.74307 13.4124 2.40723 13.9544V16.6982C2.40723 17.1426 2.8026 17.5 3.28844 17.5H4.22289C4.70873 17.5 5.10417 17.1426 5.10417 16.6982V14.5246H18.2292V16.6982C18.2292 17.1426 18.6246 17.5 19.1117 17.5H20.0436C20.5333 17.5 20.926 17.1426 20.926 16.6982V13.9544C21.5928 13.4124 22.0283 12.5354 22.0283 11.5385V8.21863C22.0283 7.9647 21.9934 7.72253 21.9391 7.48741H22.4521C22.9392 7.48741 23.3333 7.1747 23.3333 6.79145V6.05082C23.3333 5.66522 22.9392 5.35369 22.4521 5.35369ZM7.11966 1.6047H16.2123C16.8158 2.01851 17.9555 3.6667 18.838 5.23143H4.49918C5.37912 3.6667 6.51882 2.01851 7.11966 1.6047ZM5.83333 8.75C5.83333 9.55542 5.18042 10.2083 4.375 10.2083C3.56958 10.2083 2.91667 9.55542 2.91667 8.75C2.91667 7.94458 3.56958 7.29167 4.375 7.29167C5.18042 7.29167 5.83333 7.94458 5.83333 8.75ZM18.9583 10.2083C19.7637 10.2083 20.4167 9.55542 20.4167 8.75C20.4167 7.94458 19.7637 7.29167 18.9583 7.29167C18.1529 7.29167 17.5 7.94458 17.5 8.75C17.5 9.55542 18.1529 10.2083 18.9583 10.2083Z" fill="#000"/>
</svg>
