<svg width="17" height="19" viewBox="0 0 17 19" fill="none" xmlns="http://www.w3.org/2000/svg">
<path d="M1.82143 6.375C1.33836 6.375 0.875071 6.5669 0.533487 6.90848C0.191903 7.25007 3.10557e-06 7.71336 3.10557e-06 8.19643V11.8393C-0.00155175 13.4524 0.580791 15.0116 1.63943 16.2287C2.69808 17.4458 4.16147 18.2387 5.75923 18.4607C7.35698 18.6828 8.98111 18.319 10.3315 17.4367C11.682 16.5544 12.6674 15.2131 13.1058 13.6607H13.9643C14.7694 13.6607 15.5416 13.3409 16.1109 12.7716C16.6802 12.2023 17 11.4301 17 10.625C17 9.81988 16.6802 9.04773 16.1109 8.47843C15.5416 7.90912 14.7694 7.58929 13.9643 7.58929H13.2539C13.1283 7.23401 12.8956 6.92644 12.5879 6.70896C12.2801 6.49148 11.9125 6.3748 11.5357 6.375H1.82143ZM13.3571 8.80357H13.9643C14.4474 8.80357 14.9106 8.99547 15.2522 9.33705C15.5938 9.67864 15.7857 10.1419 15.7857 10.625C15.7857 11.1081 15.5938 11.5714 15.2522 11.9129C14.9106 12.2545 14.4474 12.4464 13.9643 12.4464H13.3304C13.3474 12.2461 13.3571 12.0445 13.3571 11.8393V8.80357ZM1.21429 8.19643C1.21429 8.0354 1.27826 7.88098 1.39212 7.76711C1.50598 7.65325 1.66041 7.58929 1.82143 7.58929H11.5357C11.6967 7.58929 11.8512 7.65325 11.965 7.76711C12.0789 7.88098 12.1429 8.0354 12.1429 8.19643V11.8393C12.1429 13.2885 11.5672 14.6784 10.5424 15.7031C9.51765 16.7279 8.12779 17.3036 6.67857 17.3036C5.22935 17.3036 3.83949 16.7279 2.81474 15.7031C1.78999 14.6784 1.21429 13.2885 1.21429 11.8393V8.19643Z" fill="#000"/>
<rect x="2.125" width="1.0625" height="5.3125" fill="#000"/>
<rect x="6.375" width="1.0625" height="5.3125" fill="#000"/>
<rect x="10.625" width="1.0625" height="5.3125" fill="#000"/>
</svg>
