<svg width="28" height="19" viewBox="0 0 28 19" fill="none" xmlns="http://www.w3.org/2000/svg">
<path d="M13.5912 9.19806C11.0559 9.19806 8.99219 7.13439 8.99219 4.59903C8.99219 2.06367 11.0559 0 13.5912 0C16.1266 0 18.1902 2.06367 18.1902 4.59903C18.1902 7.13439 16.1266 9.19806 13.5912 9.19806ZM13.5912 1.76886C12.0287 1.76886 10.761 3.03654 10.761 4.59903C10.761 6.16152 12.0287 7.4292 13.5912 7.4292C15.1537 7.4292 16.4214 6.16152 16.4214 4.59903C16.4214 3.03654 15.1537 1.76886 13.5912 1.76886Z" fill="#000"/>
<path d="M22.1694 9.55174C20.3121 9.55174 18.8086 8.04821 18.8086 6.19091C18.8086 4.33361 20.3121 2.83008 22.1694 2.83008C24.0267 2.83008 25.5303 4.33361 25.5303 6.19091C25.5303 8.04821 24.0267 9.55174 22.1694 9.55174ZM22.1694 4.59894C21.285 4.59894 20.5775 5.30648 20.5775 6.19091C20.5775 7.07534 21.285 7.78288 22.1694 7.78288C23.0539 7.78288 23.7614 7.07534 23.7614 6.19091C23.7614 5.30648 23.0539 4.59894 22.1694 4.59894Z" fill="#000"/>
<path d="M5.01122 9.55174C3.15392 9.55174 1.65039 8.04821 1.65039 6.19091C1.65039 4.33361 3.15392 2.83008 5.01122 2.83008C6.86852 2.83008 8.37205 4.33361 8.37205 6.19091C8.37205 8.04821 6.86852 9.55174 5.01122 9.55174ZM5.01122 4.59894C4.12679 4.59894 3.41925 5.30648 3.41925 6.19091C3.41925 7.07534 4.12679 7.78288 5.01122 7.78288C5.89565 7.78288 6.60319 7.07534 6.60319 6.19091C6.60319 5.30648 5.89565 4.59894 5.01122 4.59894Z" fill="#000"/>
<path d="M22.1992 16.0672C20.9905 16.0672 20.224 16.0082 19.6049 15.9198L18.8678 15.8018V14.9469C18.8678 13.7971 18.5141 12.6474 17.8065 11.6155L17.5117 11.1733L17.7476 10.7016C18.632 8.96226 20.3419 7.8125 22.1697 7.8125C24.8525 7.8125 27.1815 10.2299 27.211 13.1191C27.211 16.0672 24.4397 16.0672 22.1992 16.0672Z" fill="#000"/>
<path d="M5.01176 16.0672C2.77121 16.0672 0 16.0672 0 13.1191C0 10.2299 2.29952 7.8125 5.01176 7.8125C6.8101 7.8125 8.54948 8.93278 9.43391 10.7016L9.66976 11.1733L9.37495 11.6155C8.90325 12.3231 8.31363 13.5023 8.34311 14.9469V15.8313L7.60609 15.9198C6.98699 16.0082 6.22048 16.0672 5.01176 16.0672Z" fill="#000"/>
<path d="M13.5909 18.8678C10.289 18.8678 6.54492 18.8678 6.54492 14.9174C6.54492 10.849 9.75835 7.4292 13.5909 7.4292C17.4234 7.4292 20.6368 10.849 20.6368 14.9174C20.6368 18.8678 16.8927 18.8678 13.5909 18.8678ZM13.5909 9.19806C10.7902 9.19806 8.31378 11.8808 8.31378 14.9174C8.31378 16.7157 9.25717 17.099 13.5909 17.099C17.9246 17.099 18.868 16.7157 18.868 14.9174C18.868 11.8808 16.3916 9.19806 13.5909 9.19806Z" fill="#000"/>
</svg>
