<svg width="11" height="14" viewBox="0 0 11 14" fill="none" xmlns="http://www.w3.org/2000/svg">
<path d="M0 0H5.92308C7.26956 0 8.5609 0.491665 9.513 1.36684C10.4651 2.242 11 3.42899 11 4.66667C11 5.90434 10.4651 7.09133 9.513 7.9665C8.5609 8.84167 7.26956 9.33333 5.92308 9.33333H1.69231V14H0V0ZM1.69231 1.55556V7.77778H5.92308C6.82073 7.77778 7.68162 7.45 8.31636 6.86655C8.9511 6.28311 9.30769 5.49178 9.30769 4.66667C9.30769 3.84155 8.9511 3.05023 8.31636 2.46678C7.68162 1.88333 6.82073 1.55556 5.92308 1.55556H1.69231Z" fill="#000"/>
</svg>
