<svg width="19" height="19" viewBox="0 0 19 19" fill="none" xmlns="http://www.w3.org/2000/svg">
<path d="M14.6953 10.2917H12.0338L9.5 7.125H8.01562L9.93492 10.2917H5.58125L4.67578 8.70833H3.5625L4.34699 11.3248C4.39495 11.4845 4.48921 11.6239 4.6162 11.7227C4.74318 11.8216 4.89633 11.8749 5.05355 11.875H14.6953C14.8922 11.875 15.0809 11.7916 15.2201 11.6431C15.3593 11.4947 15.4375 11.2933 15.4375 11.0833C15.4375 10.8734 15.3593 10.672 15.2201 10.5235C15.0809 10.3751 14.8922 10.2917 14.6953 10.2917Z" fill="#000"/>
<path d="M9.5 19C7.62108 19 5.78435 18.4428 4.22209 17.399C2.65982 16.3551 1.44218 14.8714 0.723149 13.1355C0.00411619 11.3996 -0.184015 9.48946 0.182544 7.64665C0.549104 5.80383 1.45389 4.11109 2.78249 2.78249C4.11109 1.45389 5.80383 0.549104 7.64665 0.182544C9.48946 -0.184015 11.3996 0.00411619 13.1355 0.723149C14.8714 1.44218 16.3551 2.65982 17.399 4.22209C18.4428 5.78435 19 7.62108 19 9.5C18.9971 12.0187 17.9953 14.4334 16.2143 16.2143C14.4334 17.9953 12.0187 18.9971 9.5 19ZM9.5 1.35715C7.8895 1.35715 6.31516 1.83472 4.97607 2.72947C3.63699 3.62421 2.5933 4.89595 1.97698 6.38387C1.36067 7.87178 1.19942 9.50903 1.51361 11.0886C1.8278 12.6682 2.60334 14.1191 3.74213 15.2579C4.88093 16.3967 6.33185 17.1722 7.91141 17.4864C9.49097 17.8006 11.1282 17.6393 12.6161 17.023C14.104 16.4067 15.3758 15.363 16.2705 14.0239C17.1653 12.6848 17.6429 11.1105 17.6429 9.5C17.6403 7.34115 16.7816 5.27145 15.2551 3.74491C13.7286 2.21837 11.6589 1.35966 9.5 1.35715Z" fill="#000"/>
</svg>
