<svg width="17" height="20" viewBox="0 0 17 20" fill="none" xmlns="http://www.w3.org/2000/svg">
<path d="M0 15.8871C0 15.8114 0.0613803 15.75 0.137097 15.75H16.8629C16.9386 15.75 17 15.8114 17 15.8871C17 18.1586 15.1586 20 12.8871 20H4.1129C1.84141 20 0 18.1586 0 15.8871Z" fill="#000"/>
<path d="M8.5 15.4016V0.73666C8.5 0.547605 8.73807 0.464094 8.85617 0.611722L16.8552 10.6106C16.9315 10.7059 16.9053 10.8467 16.7998 10.9083L8.80077 15.5744C8.66744 15.6522 8.5 15.556 8.5 15.4016Z" fill="#000"/>
<path d="M4.25 12.208L8.5 1.58301V12.9163L4.25 12.208Z" stroke="#000" stroke-linejoin="round"/>
</svg>
