<svg width="23" height="21" viewBox="0 0 23 21" fill="none" xmlns="http://www.w3.org/2000/svg">
<path d="M11.5727 18.9409C12.7597 20.8921 14.6563 20.8512 15.1612 20.8512H21.2603L14.0651 12.1187C10.7449 12.2551 8.98931 14.3836 9.34862 15.2751L11.5727 18.9409Z" fill="url(#paint0_linear_2216:200)"/>
<path d="M9.34866 15.2794C9.33956 15.2658 9.15308 14.8246 9.15308 14.2925C9.15308 12.3004 10.9223 11.1542 12.9281 10.7449L14.0651 12.123C10.7449 12.2549 8.98935 14.3834 9.34866 15.2794Z" fill="url(#paint1_linear_2216:200)"/>
<path d="M12.1231 8.79395C9.08945 8.79395 6.82446 9.29425 6.82446 10.4813C6.82446 10.9179 6.96091 11.2954 7.33386 11.964L9.34871 15.2751C9.33962 15.2615 9.15313 14.8203 9.15313 14.2882C9.15313 12.296 10.9224 11.1499 12.9281 10.7406C13.5103 10.6223 14.1107 10.5632 14.6928 10.5632C15.184 10.5632 15.6479 10.5905 16.0027 10.7178C15.7935 9.95373 15.2386 8.79395 12.1231 8.79395Z" fill="url(#paint2_linear_2216:200)"/>
<path d="M4.1456 6.72896C4.97792 8.09796 5.28719 8.43908 7.27475 8.43908C8.73017 8.43908 11.0679 8.43908 11.0679 8.43908L5.83752 1.83512C4.68228 0.406987 4.01825 0.147741 2.95852 0.125H0.125L4.1456 6.72896Z" fill="url(#paint3_linear_2216:200)"/>
<path d="M22.8749 20.3917C22.8749 20.651 22.6702 20.8556 22.4109 20.8556C22.1517 20.8556 21.947 20.651 21.947 20.3917C21.947 20.137 22.1517 19.9278 22.4109 19.9278C22.6702 19.9233 22.8749 20.1325 22.8749 20.3917ZM22.038 20.3917C22.038 20.5964 22.2063 20.7647 22.4109 20.7647C22.6156 20.7647 22.7839 20.5964 22.7839 20.3917C22.7839 20.1871 22.6156 20.0188 22.4109 20.0188C22.2017 20.0142 22.038 20.1825 22.038 20.3917ZM22.3973 20.419H22.3564V20.61H22.2745V20.1461C22.2745 20.1461 22.3427 20.1461 22.4109 20.1461C22.5156 20.1461 22.5747 20.2007 22.5747 20.2826C22.5747 20.3781 22.4974 20.4008 22.4837 20.4054L22.5974 20.61H22.5019L22.3973 20.419ZM22.3882 20.3644C22.4564 20.3644 22.4928 20.3326 22.4928 20.2871C22.4928 20.2416 22.4564 20.2098 22.3882 20.2098C22.3655 20.2098 22.3564 20.2143 22.3564 20.2143V20.3644C22.3564 20.3599 22.3746 20.3644 22.3882 20.3644Z" fill="#36495A"/>
<defs>
<linearGradient id="paint0_linear_2216:200" x1="15.2797" y1="11.89" x2="15.2797" y2="25.3479" gradientUnits="userSpaceOnUse">
<stop stop-color="#ED1C24"/>
<stop offset="0.1263" stop-color="#E81B23"/>
<stop offset="0.2703" stop-color="#DB1A21"/>
<stop offset="0.4229" stop-color="#C4171D"/>
<stop offset="0.5816" stop-color="#A41317"/>
<stop offset="0.7436" stop-color="#7B0E10"/>
<stop offset="0.7546" stop-color="#780E0F"/>
</linearGradient>
<linearGradient id="paint1_linear_2216:200" x1="9.1518" y1="13.0097" x2="14.0633" y2="13.0097" gradientUnits="userSpaceOnUse">
<stop stop-color="#69231D"/>
<stop offset="0.2647" stop-color="#8D2922"/>
<stop offset="0.5812" stop-color="#B22F26"/>
<stop offset="0.8377" stop-color="#C93329"/>
<stop offset="1" stop-color="#D1342A"/>
</linearGradient>
<linearGradient id="paint2_linear_2216:200" x1="8.61226" y1="12.2921" x2="14.0852" y2="9.00361" gradientUnits="userSpaceOnUse">
<stop offset="0.1" stop-color="#E7EBEE"/>
<stop offset="0.3511" stop-color="#D5DCE0"/>
<stop offset="0.8549" stop-color="#A5B4BB"/>
<stop offset="1" stop-color="#96A7B0"/>
</linearGradient>
<linearGradient id="paint3_linear_2216:200" x1="5.59537" y1="9.52272" x2="5.59537" y2="0.225105" gradientUnits="userSpaceOnUse">
<stop stop-color="#1C2F72"/>
<stop offset="0.1275" stop-color="#174687"/>
<stop offset="0.4038" stop-color="#0D72AF"/>
<stop offset="0.6512" stop-color="#0692CC"/>
<stop offset="0.8584" stop-color="#02A6DE"/>
<stop offset="1" stop-color="#00ADE4"/>
</linearGradient>
</defs>
</svg>
