<svg width="15" height="17" viewBox="0 0 15 17" fill="none" xmlns="http://www.w3.org/2000/svg">
<path d="M10.7143 2.125H10.1786V1.59375C10.1786 0.714863 9.4577 0 8.57143 0H6.42857C5.5423 0 4.82143 0.714863 4.82143 1.59375V2.125H4.28571C1.91886 2.125 0 4.02787 0 6.375V14.875C0 16.0487 0.959263 17 2.14286 17H12.8571C14.0407 17 15 16.0487 15 14.875V6.375C15 4.02787 13.0811 2.125 10.7143 2.125ZM5.89286 1.59375C5.89286 1.30057 6.13359 1.0625 6.42857 1.0625H8.57143C8.86641 1.0625 9.10714 1.30057 9.10714 1.59375V2.125H5.89286V1.59375ZM11.25 15.9375H3.75V12.75H11.25V15.9375ZM11.25 11.6875H3.75V10.625C3.75 10.0383 4.2298 9.5625 4.82143 9.5625H10.1786C10.7702 9.5625 11.25 10.0383 11.25 10.625V11.6875ZM13.9286 14.875C13.9286 15.4607 13.4478 15.9375 12.8571 15.9375H12.3214V10.625C12.3214 9.45326 11.3602 8.5 10.1786 8.5H4.82143C3.63984 8.5 2.67857 9.45326 2.67857 10.625V15.9375H2.14286C1.55223 15.9375 1.07143 15.4607 1.07143 14.875V6.375C1.07143 4.61723 2.51317 3.1875 4.28571 3.1875H10.7143C12.4868 3.1875 13.9286 4.61723 13.9286 6.375V14.875ZM10.4464 5.3125H4.55357C4.40558 5.3125 4.28571 5.43137 4.28571 5.57812V6.10938C4.28571 6.25613 4.40558 6.375 4.55357 6.375H10.4464C10.5944 6.375 10.7143 6.25613 10.7143 6.10938V5.57812C10.7143 5.43137 10.5944 5.3125 10.4464 5.3125Z" fill="#5D6E82"/>
</svg>
