<svg width="14" height="23" viewBox="0 0 14 23" fill="none" xmlns="http://www.w3.org/2000/svg">
<rect x="0.5" y="6.74994" width="13" height="14.1667" rx="1.5" stroke="#5D6E82"/>
<rect x="4.6665" y="17.9166" width="8.16667" height="1.16667" transform="rotate(-90 4.6665 17.9166)" fill="#5D6E82"/>
<rect x="8.1665" y="17.9166" width="8.16667" height="1.16667" transform="rotate(-90 8.1665 17.9166)" fill="#5D6E82"/>
<path d="M11.6665 20.8333C11.6665 20.5112 11.9277 20.25 12.2498 20.25C12.572 20.25 12.8332 20.5112 12.8332 20.8333V22C12.8332 22.3222 12.572 22.5833 12.2498 22.5833C11.9277 22.5833 11.6665 22.3222 11.6665 22V20.8333Z" fill="#5D6E82"/>
<path d="M1.1665 20.8333C1.1665 20.5112 1.42767 20.25 1.74984 20.25C2.072 20.25 2.33317 20.5112 2.33317 20.8333V22C2.33317 22.3222 2.072 22.5833 1.74984 22.5833C1.42767 22.5833 1.1665 22.3222 1.1665 22V20.8333Z" fill="#5D6E82"/>
<path d="M4 2.41663C4 1.5882 4.67157 0.916626 5.5 0.916626H8.5C9.32843 0.916626 10 1.5882 10 2.41663V6.91663H4V2.41663Z" stroke="#5D6E82"/>
</svg>
