<svg width="22" height="22" viewBox="0 0 22 22" fill="none" xmlns="http://www.w3.org/2000/svg">
<path d="M11 21C16.5228 21 21 16.5228 21 11C21 5.47715 16.5228 1 11 1C5.47715 1 1 5.47715 1 11C1 16.5228 5.47715 21 11 21Z" stroke="#5D6E82" stroke-width="1.5"/>
<path d="M13.783 14.5732L13.7834 14.5723C13.9941 14.1667 14.1 13.7409 14.1 13.2961C14.1 12.6909 13.9735 12.1989 13.7096 11.8302C13.4523 11.4705 13.1291 11.2037 12.7409 11.0321C12.3867 10.8633 11.9366 10.7043 11.392 10.5546V7.10218C11.7694 7.18278 12.068 7.34836 12.2933 7.5958L12.2933 7.59581L12.2944 7.597C12.5574 7.87652 12.7102 8.17307 12.7596 8.48708L12.7729 8.57153H12.8584H13.8407H13.9542L13.9399 8.45896C13.8575 7.80832 13.5863 7.26287 13.1263 6.82717C12.6831 6.40738 12.1026 6.1575 11.392 6.0721V5V4.9H11.292H10.708H10.608V5V6.05334C9.80175 6.10551 9.14953 6.36576 8.66068 6.84145C8.15294 7.32638 7.9 7.94536 7.9 8.69021C7.9 9.27796 8.02684 9.76058 8.29036 10.1288L8.29035 10.1288L8.2911 10.1298C8.54813 10.4795 8.86192 10.7415 9.2323 10.9131L9.23315 10.9134C9.5872 11.0735 10.046 11.2323 10.608 11.3903V14.9829C10.1606 14.9009 9.81456 14.7162 9.56237 14.4334C9.29203 14.1112 9.14194 13.7571 9.10848 13.3695L9.10059 13.2781H9.00885H8.01327H7.90796L7.91341 13.3833C7.9501 14.0917 8.22187 14.6899 8.7274 15.1726L8.72812 15.1732C9.2148 15.6288 9.84363 15.8972 10.608 15.9832V17V17.1H10.708H11.292H11.392V17V16.001C11.949 15.9627 12.4301 15.8194 12.8319 15.5677C13.2521 15.3043 13.5704 14.9729 13.783 14.5732ZM12.5402 12.2369L12.5402 12.2369L12.5413 12.2378C12.8229 12.4781 12.9708 12.8384 12.9708 13.3371C12.9708 13.8059 12.8242 14.1956 12.533 14.5127C12.2638 14.7975 11.8869 14.9689 11.392 15.019V11.6301C11.8951 11.8015 12.276 12.0048 12.5402 12.2369ZM10.608 10.3167C10.1128 10.1539 9.73128 9.959 9.45862 9.73476C9.18575 9.49447 9.04248 9.13844 9.04248 8.6492C9.04248 8.1423 9.19433 7.76183 9.48737 7.49336C9.77307 7.23916 10.1444 7.08886 10.608 7.04796V10.3167Z" fill="#5D6E82" stroke="#5D6E82" stroke-width="0.2"/>
</svg>
