<svg width="18" height="17" viewBox="0 0 18 17" fill="none" xmlns="http://www.w3.org/2000/svg">
<path fill-rule="evenodd" clip-rule="evenodd" d="M5.32015 16.6298L8.21114 10.531L8.20773 9.61636L4.57648 9.61629C4.25807 9.61629 3.8465 9.59087 3.39937 9.54005L1.42627 11.5369C1.3111 11.6588 1.12311 11.7181 0.953738 11.7553L0.433777 11.7469C0.294895 11.7401 0.238999 11.5589 0.276257 11.3759L1.31613 9.1674C0.621719 8.98108 0.110222 8.75073 0.115298 8.50176C0.113599 8.2494 0.630168 8.01399 1.33812 7.8277L1.33982 7.83278L0.277833 5.6225C0.238875 5.44128 0.294763 5.26005 0.433645 5.25328L0.958685 5.23974C1.12805 5.27701 1.31436 5.33798 1.43292 5.45654L3.44844 7.45513C3.87694 7.40941 4.26988 7.38232 4.57643 7.38402L8.20769 7.38409L8.20936 6.53217L5.25884 0.43147C5.15214 0.21637 5.30457 0.24686 5.34522 0.2096L6.03624 0.192677C6.11584 0.214696 6.23101 0.231635 6.41732 0.397619L11.9846 7.38756L15.5142 7.38763C16.8692 7.38427 17.9735 7.88562 17.9718 8.50043C17.9718 9.11354 16.8709 9.61824 15.5143 9.61651L11.9846 9.61644L6.47355 16.6587C6.29063 16.828 6.17716 16.8467 6.09755 16.8687L5.40822 16.8534C5.36758 16.8161 5.21684 16.8483 5.32015 16.6298Z" fill="#344050"/>
</svg>
