<svg width="20" height="20" viewBox="0 0 20 20" fill="none" xmlns="http://www.w3.org/2000/svg">
<path fill-rule="evenodd" clip-rule="evenodd" d="M15.5092 19.8206L12.4848 11.3448L11.6193 10.4858L8.19562 13.9093C7.89541 14.2095 7.48343 14.5735 7.01395 14.9472L7.03631 18.6901C7.0427 18.9136 6.92134 19.1467 6.79678 19.3415L6.29856 19.8238C6.16123 19.9483 5.93767 19.8302 5.80034 19.6226L4.69852 16.5599C3.86816 17.039 3.16873 17.304 2.93879 17.0645C2.69926 16.8282 2.96434 16.1192 3.45617 15.2761L3.46256 15.2793L0.377439 14.1967C0.169849 14.0626 0.0516826 13.839 0.176237 13.7017L0.658486 13.1939C0.853302 13.0694 1.08644 12.9512 1.31 12.9512L5.09454 12.9352C5.45543 12.4881 5.80034 12.0921 6.09097 11.8047L9.51462 8.3812L8.713 7.57642L0.17943 4.6064C-0.123971 4.50421 0.0484887 4.38924 0.0516824 4.31579L0.687229 3.64833C0.78304 3.59404 0.907594 3.50143 1.23974 3.48227L13.0788 4.82357L16.4066 1.49586C17.6809 0.215242 19.1947 -0.353214 19.7728 0.228016C20.3509 0.806051 19.7888 2.31981 18.5081 3.59723L15.1802 6.92494L16.6238 18.7603C16.611 19.0924 16.5216 19.217 16.4673 19.3128L15.803 19.9483C15.7296 19.9515 15.6178 20.124 15.5092 19.8206Z" fill="#344050"/>
</svg>
